<?xml version="1.0" encoding="UTF-8" standalone="no"?>
<!-- Created with Inkscape (http://www.inkscape.org/) -->

<svg
   width="210mm"
   height="297mm"
   viewBox="0 0 210 297"
   version="1.1"
   id="svg1455"
   sodipodi:docname="Eslabon_medidas.svg"
   inkscape:version="1.1.2 (0a00cf5339, 2022-02-04)"
   xmlns:inkscape="http://www.inkscape.org/namespaces/inkscape"
   xmlns:sodipodi="http://sodipodi.sourceforge.net/DTD/sodipodi-0.dtd"
   xmlns="http://www.w3.org/2000/svg"
   xmlns:svg="http://www.w3.org/2000/svg">
  <sodipodi:namedview
     id="namedview1457"
     pagecolor="#ffffff"
     bordercolor="#666666"
     borderopacity="1.0"
     inkscape:showpageshadow="2"
     inkscape:pageopacity="0.0"
     inkscape:pagecheckerboard="0"
     inkscape:deskcolor="#d1d1d1"
     inkscape:document-units="mm"
     showgrid="false"
     showguides="true"
     inkscape:zoom="0.74564395"
     inkscape:cx="321.19888"
     inkscape:cy="476.76911"
     inkscape:window-width="1920"
     inkscape:window-height="1082"
     inkscape:window-x="0"
     inkscape:window-y="27"
     inkscape:window-maximized="1"
     inkscape:current-layer="layer1"
     inkscape:lockguides="false"
     inkscape:pageshadow="2"
     inkscape:snap-bbox="true"
     inkscape:snap-bbox-edge-midpoints="true"
     inkscape:bbox-nodes="true"
     inkscape:bbox-paths="true"
     inkscape:snap-bbox-midpoints="true">
    <sodipodi:guide
       position="25,249.13004"
       orientation="-1,0"
       id="guide6372"
       inkscape:locked="false"
       inkscape:label=""
       inkscape:color="rgb(0,134,229)" />
    <sodipodi:guide
       position="175,228.18825"
       orientation="-1,0"
       id="guide6376"
       inkscape:locked="false"
       inkscape:label=""
       inkscape:color="rgb(0,134,229)" />
    <sodipodi:guide
       position="22.393615,242"
       orientation="0,1"
       id="guide6561"
       inkscape:locked="false"
       inkscape:label=""
       inkscape:color="rgb(0,134,229)" />
    <sodipodi:guide
       position="30.234517,272"
       orientation="0,1"
       id="guide6567"
       inkscape:locked="false"
       inkscape:label=""
       inkscape:color="rgb(0,134,229)" />
    <sodipodi:guide
       position="10,241.92551"
       orientation="-1,0"
       id="guide6569"
       inkscape:locked="false"
       inkscape:label=""
       inkscape:color="rgb(0,134,229)" />
    <sodipodi:guide
       position="22.798387,212"
       orientation="0,1"
       id="guide6719"
       inkscape:locked="false"
       inkscape:label=""
       inkscape:color="rgb(0,134,229)" />
    <sodipodi:guide
       position="190,266.48388"
       orientation="-1,0"
       id="guide6872"
       inkscape:locked="false"
       inkscape:label=""
       inkscape:color="rgb(0,134,229)" />
    <sodipodi:guide
       position="24.338159,232"
       orientation="0,1"
       id="guide6878"
       inkscape:locked="false"
       inkscape:label=""
       inkscape:color="rgb(0,134,229)" />
    <sodipodi:guide
       position="59.465398,252"
       orientation="0,1"
       id="guide6880"
       inkscape:locked="false"
       inkscape:label=""
       inkscape:color="rgb(0,134,229)" />
  </sodipodi:namedview>
  <defs
     id="defs1452" />
  <g
     inkscape:label="Capa 1"
     inkscape:groupmode="layer"
     id="layer1">
    <path
       id="rect388"
       style="fill:none;stroke:#000000;stroke-width:0.442529"
       d="m 25.219995,24.933338 v 0.06925 a 29.712277,29.712277 0 0 0 -0.221175,-0.0026 29.712277,29.712277 0 0 0 -29.7123978,29.711883 29.712277,29.712277 0 0 0 29.7123978,29.712398 29.712277,29.712277 0 0 0 0.221175,-0.0083 v 0.07493 H 175 v -0.06666 A 29.712277,29.712277 0 0 0 204.71084,54.711883 29.712277,29.712277 0 0 0 175,25.000001 v -0.06666 z m 9.738834,29.888773 A 9.9464912,9.9464912 0 0 1 24.848954,64.602489 9.9464912,9.9464912 0 0 1 15.068576,54.492615 9.9464912,9.9464912 0 0 1 25.17845,44.712236 9.9464912,9.9464912 0 0 1 34.958829,54.822111 Z m 150.000011,-3e-6 a 9.9464912,9.9464912 0 0 1 -10.10988,9.780381 9.9464912,9.9464912 0 0 1 -9.78038,-10.109877 9.9464912,9.9464912 0 0 1 10.10988,-9.780379 9.9464912,9.9464912 0 0 1 9.78038,10.109875 z" />
  </g>
</svg>
