<?xml version="1.0" encoding="UTF-8" standalone="no"?>
<!-- Created with Inkscape (http://www.inkscape.org/) -->

<svg
   width="420mm"
   height="594mm"
   viewBox="0 0 420 594"
   version="1.1"
   id="svg1455"
   sodipodi:docname="Eslabones.svg"
   inkscape:version="1.1.2 (0a00cf5339, 2022-02-04)"
   xmlns:inkscape="http://www.inkscape.org/namespaces/inkscape"
   xmlns:sodipodi="http://sodipodi.sourceforge.net/DTD/sodipodi-0.dtd"
   xmlns="http://www.w3.org/2000/svg"
   xmlns:svg="http://www.w3.org/2000/svg">
  <sodipodi:namedview
     id="namedview1457"
     pagecolor="#ffffff"
     bordercolor="#666666"
     borderopacity="1.0"
     inkscape:showpageshadow="2"
     inkscape:pageopacity="0.0"
     inkscape:pagecheckerboard="0"
     inkscape:deskcolor="#d1d1d1"
     inkscape:document-units="mm"
     showgrid="false"
     showguides="true"
     inkscape:zoom="0.26362495"
     inkscape:cx="733.99731"
     inkscape:cy="1321.9538"
     inkscape:window-width="1920"
     inkscape:window-height="1082"
     inkscape:window-x="0"
     inkscape:window-y="27"
     inkscape:window-maximized="1"
     inkscape:current-layer="layer1"
     inkscape:lockguides="false"
     inkscape:pageshadow="2"
     inkscape:snap-bbox="true"
     inkscape:snap-bbox-edge-midpoints="true"
     inkscape:bbox-nodes="true"
     inkscape:bbox-paths="true"
     inkscape:snap-bbox-midpoints="true"
     units="mm">
    <sodipodi:guide
       position="25,249.13004"
       orientation="-1,0"
       id="guide6372"
       inkscape:locked="false"
       inkscape:label=""
       inkscape:color="rgb(0,134,229)" />
    <sodipodi:guide
       position="175,228.18825"
       orientation="-1,0"
       id="guide6376"
       inkscape:locked="false"
       inkscape:label=""
       inkscape:color="rgb(0,134,229)" />
    <sodipodi:guide
       position="22.393615,242"
       orientation="0,1"
       id="guide6561"
       inkscape:locked="false"
       inkscape:label=""
       inkscape:color="rgb(0,134,229)" />
    <sodipodi:guide
       position="30.234517,272"
       orientation="0,1"
       id="guide6567"
       inkscape:locked="false"
       inkscape:label=""
       inkscape:color="rgb(0,134,229)" />
    <sodipodi:guide
       position="10,241.92551"
       orientation="-1,0"
       id="guide6569"
       inkscape:locked="false"
       inkscape:label=""
       inkscape:color="rgb(0,134,229)" />
    <sodipodi:guide
       position="22.798387,212"
       orientation="0,1"
       id="guide6719"
       inkscape:locked="false"
       inkscape:label=""
       inkscape:color="rgb(0,134,229)" />
    <sodipodi:guide
       position="190,266.48388"
       orientation="-1,0"
       id="guide6872"
       inkscape:locked="false"
       inkscape:label=""
       inkscape:color="rgb(0,134,229)" />
    <sodipodi:guide
       position="24.338159,232"
       orientation="0,1"
       id="guide6878"
       inkscape:locked="false"
       inkscape:label=""
       inkscape:color="rgb(0,134,229)" />
    <sodipodi:guide
       position="59.465398,252"
       orientation="0,1"
       id="guide6880"
       inkscape:locked="false"
       inkscape:label=""
       inkscape:color="rgb(0,134,229)" />
  </sodipodi:namedview>
  <defs
     id="defs1452" />
  <g
     inkscape:label="Capa 1"
     inkscape:groupmode="layer"
     id="layer1">
    <path
       id="rect388"
       style="fill:#00ffff;stroke:#000000;stroke-width:0.442529"
       d="m 180.26117,95.344502 v 0.0692 a 29.712277,29.712277 0 0 0 -0.22118,-0.003 29.712277,29.712277 0 0 0 -29.7124,29.711878 29.712277,29.712277 0 0 0 29.7124,29.7124 29.712277,29.712277 0 0 0 0.22118,-0.008 v 0.0749 h 149.78 v -0.0667 a 29.712277,29.712277 0 0 0 29.71084,-29.71214 29.712277,29.712277 0 0 0 -29.71084,-29.711878 v -0.0667 z M 190,125.23327 a 9.9464912,9.9464912 0 0 1 -10.10988,9.78038 9.9464912,9.9464912 0 0 1 -9.78037,-10.10988 9.9464912,9.9464912 0 0 1 10.10987,-9.78037 A 9.9464912,9.9464912 0 0 1 190,125.23327 Z m 150.00001,0 a 9.9464912,9.9464912 0 0 1 -10.10988,9.78038 9.9464912,9.9464912 0 0 1 -9.78038,-10.10988 9.9464912,9.9464912 0 0 1 10.10988,-9.78038 9.9464912,9.9464912 0 0 1 9.78038,10.10988 z" />
    <path
       id="rect388-6"
       style="fill:#ff00ff;stroke:#000000;stroke-width:0.442529"
       d="m 359.74324,126.48727 -0.0691,-0.003 a 29.712277,29.712277 0 0 0 0.012,-0.22087 29.712277,29.712277 0 0 0 -28.48129,-30.893988 29.712277,29.712277 0 0 0 -30.89401,28.481808 29.712277,29.712277 0 0 0 -9.8e-4,0.22132 l -0.0748,-0.003 -6.07995,149.65655 0.0666,0.003 a 29.712277,29.712277 0 0 0 28.48161,30.89245 29.712277,29.712277 0 0 0 30.89343,-28.48028 l 0.0666,0.003 z m -30.25946,8.51755 a 9.9464912,9.9464912 0 0 1 -9.36193,-10.49855 9.9464912,9.9464912 0 0 1 10.49856,-9.36194 9.9464912,9.9464912 0 0 1 9.36192,10.49856 9.9464912,9.9464912 0 0 1 -10.49855,9.36193 z m -6.08887,149.87637 a 9.9464912,9.9464912 0 0 1 -9.36194,-10.49856 9.9464912,9.9464912 0 0 1 10.49856,-9.36193 9.9464912,9.9464912 0 0 1 9.36193,10.49856 9.9464912,9.9464912 0 0 1 -10.49855,9.36193 z" />
    <path
       id="rect388-6-7"
       style="fill:#ff2a2a;stroke:#000000;stroke-width:0.442529"
       d="m 201.90841,144.82331 -0.0524,-0.0453 a 29.712277,29.712277 0 0 0 0.14643,-0.1658 29.712277,29.712277 0 0 0 -3.17899,-41.89889 29.712277,29.712277 0 0 0 -41.89922,3.17939 29.712277,29.712277 0 0 0 -0.13806,0.17299 l -0.0568,-0.0488 -97.593211,113.62048 0.0504,0.0437 a 29.712277,29.712277 0 0 0 3.18019,41.89788 29.712277,29.712277 0 0 0 41.897861,-3.17851 l 0.0504,0.0436 z m -29.0187,-12.08713 a 9.9464912,9.9464912 0 0 1 -0.83186,-14.04184 9.9464912,9.9464912 0 0 1 14.04186,-0.83187 9.9464912,9.9464912 0 0 1 0.83185,14.04185 9.9464912,9.9464912 0 0 1 -14.04185,0.83186 z M 75.153159,246.52356 a 9.9464912,9.9464912 0 0 1 -0.83186,-14.04186 9.9464912,9.9464912 0 0 1 14.04185,-0.83185 9.9464912,9.9464912 0 0 1 0.83185,14.04184 9.9464912,9.9464912 0 0 1 -14.04184,0.83187 z" />
    <path
       id="rect388-6-7-5"
       style="fill:#ffff00;stroke:#000000;stroke-width:0.442529"
       d="m 195.89094,340.25647 0.0352,-0.0596 a 29.712277,29.712277 0 0 0 0.18928,0.11447 29.712277,29.712277 0 0 0 40.65811,-10.60854 29.712277,29.712277 0 0 0 -10.609,-40.65837 29.712277,29.712277 0 0 0 -0.19486,-0.10495 l 0.0379,-0.0646 -129.219191,-75.73933 -0.034,0.0574 a 29.712277,29.712277 0 0 0 -40.6569,10.60954 29.712277,29.712277 0 0 0 10.60789,40.65718 l -0.0339,0.0574 z m 6.71193,-30.71048 a 9.9464912,9.9464912 0 0 1 13.6677,-3.32552 9.9464912,9.9464912 0 0 1 3.32554,13.66772 9.9464912,9.9464912 0 0 1 -13.66772,3.32551 9.9464912,9.9464912 0 0 1 -3.32552,-13.66771 z M 73.193859,233.69541 a 9.9464912,9.9464912 0 0 1 13.66773,-3.32552 9.9464912,9.9464912 0 0 1 3.32551,13.66771 9.9464912,9.9464912 0 0 1 -13.6677,3.32551 9.9464912,9.9464912 0 0 1 -3.32554,-13.6677 z" />
  </g>
</svg>
