<?xml version="1.0" encoding="UTF-8" standalone="no"?>
<!-- Created with Inkscape (http://www.inkscape.org/) -->

<svg
   width="210mm"
   height="297mm"
   viewBox="0 0 210 297"
   version="1.1"
   id="svg5"
   sodipodi:docname="guille.svg"
   inkscape:version="1.1.2 (0a00cf5339, 2022-02-04)"
   xmlns:inkscape="http://www.inkscape.org/namespaces/inkscape"
   xmlns:sodipodi="http://sodipodi.sourceforge.net/DTD/sodipodi-0.dtd"
   xmlns="http://www.w3.org/2000/svg"
   xmlns:svg="http://www.w3.org/2000/svg">
  <sodipodi:namedview
     id="namedview7"
     pagecolor="#ffffff"
     bordercolor="#666666"
     borderopacity="1.0"
     inkscape:pageshadow="2"
     inkscape:pageopacity="0.0"
     inkscape:pagecheckerboard="0"
     inkscape:document-units="mm"
     showgrid="false"
     inkscape:zoom="0.98520767"
     inkscape:cx="202.49538"
     inkscape:cy="517.14985"
     inkscape:window-width="1920"
     inkscape:window-height="1082"
     inkscape:window-x="0"
     inkscape:window-y="27"
     inkscape:window-maximized="1"
     inkscape:current-layer="layer1" />
  <defs
     id="defs2" />
  <g
     inkscape:label="Capa 1"
     inkscape:groupmode="layer"
     id="layer1"
     style="display:inline">
    <path
       style="fill:none;stroke:#000000;stroke-width:0.264583px;stroke-linecap:butt;stroke-linejoin:miter;stroke-opacity:1"
       d="m 80.34043,116.09052 c 1.19819,-1.55509 2.02254,-3.40617 4.42328,-4.00917 3.94576,-1.23925 6.20883,-0.43704 9.21282,-0.53372 3.54547,0.87757 3.37358,2.4664 4.801222,3.74918 -0.340742,2.16359 -1.907862,2.7848 -3.475652,3.40518 -3.6714,0.4931 -7.33806,0.25435 -11.00516,0.0844 -2.42335,-0.53444 -2.70713,-1.77435 -3.95651,-2.69587 z"
       id="path4324-3"
       sodipodi:nodetypes="ccccccc" />
    <path
       style="fill:none;stroke:#000000;stroke-width:0.264583px;stroke-linecap:butt;stroke-linejoin:miter;stroke-opacity:1"
       d="m 74.020195,141.33069 c 4.240596,15.53978 11.657638,27.20362 23.010309,34.06516 6.150636,-0.20561 8.052396,2.3574 19.521706,-1.31393 14.51254,-8.54477 17.11399,-20.42739 24.45065,-30.98306"
       id="path2826"
       sodipodi:nodetypes="cccc" />
    <path
       style="fill:none;stroke:#000000;stroke-width:0.264583px;stroke-linecap:butt;stroke-linejoin:miter;stroke-opacity:1"
       d="m 141.00286,143.09886 c 2.37793,0.78374 4.15425,0.46668 5.73042,-0.21663 3.25142,-2.45453 2.70515,-5.87289 3.91084,-8.84661"
       id="path3179"
       sodipodi:nodetypes="ccc" />
    <path
       style="fill:none;stroke:#000000;stroke-width:0.264583px;stroke-linecap:butt;stroke-linejoin:miter;stroke-opacity:1"
       d="m 74.020195,141.33069 -5.718352,0.1327 c -2.599536,0.90577 -3.08456,-3.06915 -4.061907,-5.9077 v 0"
       id="path3309"
       sodipodi:nodetypes="cccc" />
    <path
       style="fill:none;stroke:#000000;stroke-width:0.264583px;stroke-linecap:butt;stroke-linejoin:miter;stroke-opacity:1"
       d="m 99.897024,118.70485 c -0.66356,4.73285 -0.795314,9.07366 -0.394441,13.02182 -2.759913,3.17329 -2.567931,4.49211 -2.367174,5.80542"
       id="path3646"
       sodipodi:nodetypes="ccc" />
    <path
       style="fill:none;stroke:#000000;stroke-width:0.264583px;stroke-linecap:butt;stroke-linejoin:miter;stroke-opacity:1"
       d="m 115.84725,118.69856 c 0.72814,4.02492 0.62837,7.78661 0.62471,11.57885 1.62759,1.41346 3.6372,2.57016 3.67795,5.05011 -0.26307,1.20168 0.18026,2.40337 -1.38946,3.60505 -1.06106,0.39466 -0.52545,0.72453 -5.14504,1.26357 -1.50995,0.40365 -3.99739,0.38838 -6.7973,0.23919 -2.06883,0.0462 -4.18523,-0.0415 -6.5985,-0.96513 -1.468927,0.12773 -2.529902,-0.46055 -3.084201,-1.93811"
       id="path3776"
       sodipodi:nodetypes="cccccccc" />
    <path
       style="fill:none;stroke:#000000;stroke-width:0.264583px;stroke-linecap:butt;stroke-linejoin:miter;stroke-opacity:1"
       d="m 117.11718,115.89341 c 1.19819,-1.55509 2.02254,-3.40617 4.42328,-4.00917 3.94576,-1.23925 6.20883,-0.43704 9.21282,-0.53372 3.54547,0.87757 3.37358,2.4664 4.80122,3.74918 -0.34074,2.16359 -1.90786,2.7848 -3.47565,3.40518 -3.6714,0.4931 -7.33806,0.25435 -11.00516,0.0844 -2.42335,-0.53444 -2.70713,-1.77435 -3.95651,-2.69587 z"
       id="path4324"
       sodipodi:nodetypes="ccccccc" />
    <ellipse
       style="fill:#000000;stroke:#000000;stroke-width:0.264583"
       id="path4955"
       cx="90.345314"
       cy="115.96861"
       rx="1.8806177"
       ry="1.7054631" />
    <ellipse
       style="fill:#000000;stroke:#000000;stroke-width:0.264583"
       id="path4957"
       cx="126.34187"
       cy="115.56999"
       rx="2.2094152"
       ry="2.062912" />
    <path
       style="fill:#000000;stroke:#000000;stroke-width:0.264583px;stroke-linecap:butt;stroke-linejoin:miter;stroke-opacity:1"
       d="m 77.520913,111.28357 c 1.913637,-1.32583 3.256172,-3.01306 6.500844,-3.4966 2.951274,0.49264 5.640079,-0.50553 8.931312,1.91808 2.155679,0.83574 4.834307,0.14129 6.206167,3.27054 0.972244,-0.57817 2.442854,-0.36422 2.394864,-2.56399 -0.13479,-0.91368 0.20323,-1.65968 -1.6171,-3.17114 -2.609065,-0.95325 -5.516219,-1.89729 -8.990282,-2.8238 -2.020425,-0.71682 -4.181554,-1.20836 -6.811468,-0.94931 -1.479434,0.41871 -2.958869,0.39177 -4.438303,1.71613 -1.614332,0.63187 -2.242035,1.72261 -2.503162,2.98384 -0.268909,1.09053 -0.03782,2.11256 0.327128,3.11625 z"
       id="path4992"
       sodipodi:nodetypes="ccccccccccc" />
    <path
       style="fill:#000000;stroke:#000000;stroke-width:0.264583px;stroke-linecap:butt;stroke-linejoin:miter;stroke-opacity:1"
       d="m 113.72906,111.53448 c -0.42157,-0.33881 -1.00556,-2.60723 -0.10459,-2.94248 1.87349,-1.97537 3.39817,-1.6706 4.6091,-2.1957 4.25759,-1.22193 2.02272,-2.83097 13.61329,-3.61566 2.14501,0.76238 4.3125,0.70927 6.39718,3.65924 l -0.27576,1.42553 c -2.89136,-0.2549 -5.79252,-0.50024 -9.53531,0.076 -2.5575,-0.70483 -4.81121,0.46765 -7.04124,1.78641 -2.51476,0.27338 -4.84611,-0.0532 -7.75966,1.52474"
       id="path5464"
       sodipodi:nodetypes="ccccccccc" />
    <path
       style="fill:#000000;stroke:#000000;stroke-width:0.264583px;stroke-linecap:butt;stroke-linejoin:miter;stroke-opacity:1"
       d="m 64.239936,135.55569 c -6.169473,-6.93031 -5.963299,-20.33145 -6.528097,-32.95011 0.43848,-11.8039 0.06588,-24.000995 4.532323,-33.852229 7.209228,-11.627782 9.940426,-11.956886 13.735685,-14.970762 l 10.183265,-5.233315 24.341768,0.01336 c 8.78172,1.235179 17.90627,1.992824 24.76162,5.911308 10.42242,7.206674 13.68933,14.068736 18.53209,21.006691 3.68478,10.92032 4.43144,20.218476 4.05461,28.896347 1.67818,9.27633 0.262,15.08601 0.15726,22.3649 -0.56631,1.92804 -1.25998,4.47975 -2.20904,8.28207 -5.54385,-1.69658 -8.58028,-0.80807 -12.47613,-0.80559 0.13869,-7.87874 2.60094,-13.97119 0.0898,-23.88705 0.16796,-4.82502 -3.69098,-7.73084 -6.03741,-11.357513 -6.74112,4.927023 -16.02707,5.733763 -26.29861,4.944763 -6.63807,-0.58012 -13.183298,-2.11306 -20.132302,0.49811 -6.486876,-0.88167 -12.765105,-5.944026 -19.588208,-0.0887 -1.869617,4.51326 -1.782803,9.45084 -1.459838,14.43965 l 1.261782,14.92032 z"
       id="path6130"
       sodipodi:nodetypes="cccccccccccccccccccc" />
    <path
       style="fill:#000000;stroke:#000000;stroke-width:0.264583px;stroke-linecap:butt;stroke-linejoin:miter;stroke-opacity:1"
       d="m 150.64412,134.03562 c 0,0 1.38679,-0.25491 3.5402,0.50172 -4.55149,10.24377 -5.72426,22.09812 -16.28299,28.50912 l -0.65796,-13.14077 3.75949,-6.80683"
       id="path8398"
       sodipodi:nodetypes="ccccc" />
    <path
       style="fill:none;stroke:#000000;stroke-width:0.264583px;stroke-linecap:butt;stroke-linejoin:miter;stroke-opacity:1"
       d="m 70.302945,149.08378 v 0"
       id="path8400" />
    <path
       style="fill:none;stroke:#000000;stroke-width:0.264583px;stroke-linecap:butt;stroke-linejoin:miter;stroke-opacity:1"
       d="m 68.301843,141.46339 5.718352,-0.1327"
       id="path8402" />
    <path
       style="fill:#000000;stroke:#000000;stroke-width:0.264583px;stroke-linecap:butt;stroke-linejoin:miter;stroke-opacity:1"
       d="m 68.301843,141.46339 c -0.771063,4.71349 3.611752,10.96906 9.671931,17.72651 l -0.04599,-7.15157 -3.907589,-10.70764"
       id="path8653"
       sodipodi:nodetypes="cccc" />
    <path
       style="fill:#800080;stroke:#000000;stroke-width:0.264583px;stroke-linecap:butt;stroke-linejoin:miter;stroke-opacity:1"
       d="m 91.97057,147.68848 c 14.16349,-0.13712 25.40842,-0.37285 34.59847,-0.67799 -4.31223,2.64123 -8.00507,6.0668 -11.99174,9.12028 -3.21615,1.60191 -7.48573,1.34029 -12.07112,0.51999 -9.750978,-4.46549 -8.125336,-7.37023 -10.53561,-8.96228 z"
       id="path9068"
       sodipodi:nodetypes="ccccc" />
    <path
       style="fill:none;stroke:#000000;stroke-width:0.264583px;stroke-linecap:butt;stroke-linejoin:miter;stroke-opacity:1"
       d="m 96.356021,150.5095 c 8.771359,-1.49792 17.112779,-0.94389 25.432199,-0.28485"
       id="path9070"
       sodipodi:nodetypes="cc" />
    <path
       style="fill:none;stroke:#000000;stroke-width:0.264583px;stroke-linecap:butt;stroke-linejoin:miter;stroke-opacity:1"
       d="m 96.356021,150.5095 25.432199,-0.28485"
       id="path9542" />
    <path
       style="fill:none;stroke:#000000;stroke-width:0.264583px;stroke-linecap:butt;stroke-linejoin:miter;stroke-opacity:1"
       d="m 137.24337,149.90569 c -0.0568,7.95522 -0.2484,15.71445 0.73666,25.18541 -1.79737,20.92872 -14.55112,24.50555 -22.7108,35.35811 l -0.70286,8.84661 -2.9174,0.67244 -5.53687,-13.82958 c -11.582749,-3.3904 -17.730456,-13.77181 -26.19679,-21.1708 -3.667903,-4.38012 -3.327217,-10.94074 -3.584591,-17.17604 2.759617,-11.54647 1.450941,-11.59401 1.597065,-15.75351"
       id="path9933"
       sodipodi:nodetypes="ccccccccc" />
  </g>
  <g
     inkscape:groupmode="layer"
     id="layer2"
     inkscape:label="Capa 2" />
</svg>
